{
  "source": "C:\\Users\\Peter\\Desktop\\stuff\\MIUN\\quantitative_research\\video_compression\\videos\\BVI-HD\\BVI-HD_CDVL_videos\\ORIG\\PlasmaAveragePan_1920x1080_60fps.mp4",
  "output": "C:\\Users\\Peter\\Desktop\\stuff\\MIUN\\quantitative_research\\video_compression\\compressed_videos\\BVI-HD\\hevc\\3\\PlasmaAveragePan_1920x1080_60fps_hevc.mp4",
  "codec": "hevc",
  "ok": "Input #0, mov,mp4,m4a,3gp,3g2,mj2, from 'C:\\Users\\Peter\\Desktop\\stuff\\MIUN\\quantitative_research\\video_compression\\videos\\BVI-HD\\BVI-HD_CDVL_videos\\ORIG\\PlasmaAveragePan_1920x1080_60fps.mp4':\n  Metadata:\n    major_brand     : isom\n    minor_version   : 512\n    compatible_brands: isomiso2avc1mp41\n    encoder         : Lavf54.28.101\n  Duration: 00:00:05.00, start: 0.000000, bitrate: 73730 kb/s\n  Stream #0:0[0x1](und): Video: h264 (High 4:4:4 Predictive) (avc1 / 0x31637661), yuv420p(progressive), 1920x1080, 73727 kb/s, 60 fps, 60 tbr, 60 tbn (default)\n    Metadata:\n      handler_name    : VideoHandler\n      vendor_id       : [0][0][0][0]\n[out#0/mp4 @ 000002436c7d7900] Codec AVOption b:a (set bitrate (in bits/s)) has not been used for any stream. The most likely reason is either wrong type (e.g. a video option with no video streams) or that it is a private option of some decoder which was not actually used for any stream.\nStream mapping:\n  Stream #0:0 -> #0:0 (h264 (native) -> hevc (libx265))\nPress [q] to stop, [?] for help\n[libx265 @ 000002436c6c2c00] Unknown option: \"aq-mode.\nx265 [info]: HEVC encoder version 4.1+190-8f11c33ac\nx265 [info]: build info [Windows][GCC 15.1.0][64 bit] 10bit\nx265 [info]: using cpu capabilities: MMX2 SSE2Fast LZCNT SSSE3 SSE4.2 AVX FMA3 BMI2 AVX2\nx265 [info]: Main 10 profile, Level-4.1 (Main tier)\nx265 [info]: Thread pool created using 12 threads\nx265 [info]: Slices                              : 1\nx265 [info]: frame threads / pool features       : 3 / wpp(17 rows)\nx265 [info]: Coding QT: max CU size, min CU size : 64 / 8\nx265 [info]: Residual QT: max TU size, max depth : 32 / 1 inter / 1 intra\nx265 [info]: ME / range / subpel / merge         : star / 57 / 3 / 3\nx265 [info]: Keyframe min / max / scenecut / bias  : 25 / 250 / 40 / 5.00 \nx265 [info]: Lookahead / bframes / badapt        : 25 / 4 / 2\nx265 [info]: b-pyramid / weightp / weightb       : 1 / 1 / 0\nx265 [info]: References / ref-limit  cu / depth  : 4 / on / on\nx265 [info]: AQ: mode / str / qg-size / cu-tree  : 2 / 1.0 / 32 / 1\nx265 [info]: Rate Control / qCompress            : ABR-3000 kbps / 0.60\nx265 [info]: VBV/HRD buffer / max-rate / init    : 3000 / 3000 / 0.750\nx265 [info]: tools: rect limit-modes rd=4 psy-rd=2.00 rdoq=2 psy-rdoq=1.00\nx265 [info]: tools: rskip mode=1 signhide tmvp strong-intra-smoothing lslices=4\nx265 [info]: tools: deblock sao dhdr10-info\nOutput #0, mp4, to 'C:\\Users\\Peter\\Desktop\\stuff\\MIUN\\quantitative_research\\video_compression\\compressed_videos\\BVI-HD\\hevc\\3\\PlasmaAveragePan_1920x1080_60fps_hevc.mp4':\n  Metadata:\n    major_brand     : isom\n    minor_version   : 512\n    compatible_brands: isomiso2avc1mp41\n    encoder         : Lavf62.3.100\n  Stream #0:0(und): Video: hevc (hev1 / 0x31766568), yuv420p10le(tv, progressive), 1920x1080, q=2-31, 3000 kb/s, 60 fps, 15360 tbn (default)\n    Metadata:\n      encoder         : Lavc62.11.100 libx265\n      handler_name    : VideoHandler\n      vendor_id       : [0][0][0][0]\n    Side data:\n      cpb: bitrate max/min/avg: 3000000/0/3000000 buffer size: 3000000 vbv_delay: N/A\nframe=    0 fps=0.0 q=0.0 size=       0KiB time=N/A bitrate=N/A speed=N/A elapsed=0:00:00.51    \nframe=    0 fps=0.0 q=0.0 size=       0KiB time=N/A bitrate=N/A speed=N/A elapsed=0:00:01.02    \nframe=    0 fps=0.0 q=0.0 size=       0KiB time=N/A bitrate=N/A speed=N/A elapsed=0:00:01.54    \nframe=    0 fps=0.0 q=0.0 size=       0KiB time=N/A bitrate=N/A speed=N/A elapsed=0:00:02.05    \nframe=    0 fps=0.0 q=0.0 size=       0KiB time=N/A bitrate=N/A speed=N/A elapsed=0:00:02.57    \nframe=    0 fps=0.0 q=0.0 size=       0KiB time=N/A bitrate=N/A speed=N/A elapsed=0:00:03.08    \nframe=    1 fps=0.3 q=38.0 size=       0KiB time=-00:00:00.01 bitrate=N/A speed=N/A elapsed=0:00:03.61    \nframe=    1 fps=0.2 q=38.0 size=       0KiB time=-00:00:00.01 bitrate=N/A speed=N/A elapsed=0:00:04.15    \nframe=    3 fps=0.6 q=47.4 size=       0KiB time=00:00:00.01 bitrate=  21.1kbits/s speed=0.00358x elapsed=0:00:04.66    \nframe=    3 fps=0.6 q=47.4 size=       0KiB time=00:00:00.01 bitrate=  21.1kbits/s speed=0.00322x elapsed=0:00:05.18    \nframe=    4 fps=0.7 q=43.4 size=       0KiB time=00:00:00.03 bitrate=  10.6kbits/s speed=0.00585x elapsed=0:00:05.70    \nframe=    4 fps=0.6 q=43.4 size=       0KiB time=00:00:00.03 bitrate=  10.6kbits/s speed=0.00537x elapsed=0:00:06.20    \nframe=    5 fps=0.7 q=43.2 size=       0KiB time=00:00:00.05 bitrate=   7.0kbits/s speed=0.00743x elapsed=0:00:06.73    \nframe=    6 fps=0.8 q=41.8 size=       0KiB time=00:00:00.06 bitrate=   5.3kbits/s speed=0.00919x elapsed=0:00:07.25    \nframe=    7 fps=0.9 q=39.2 size=       0KiB time=00:00:00.08 bitrate=   4.2kbits/s speed=0.0107x elapsed=0:00:07.77    \nframe=    8 fps=1.0 q=40.3 size=       0KiB time=00:00:00.10 bitrate=   3.5kbits/s speed=0.0121x elapsed=0:00:08.29    \nframe=    9 fps=1.0 q=37.2 size=       0KiB time=00:00:00.11 bitrate=   3.0kbits/s speed=0.0133x elapsed=0:00:08.80    \nframe=   10 fps=1.1 q=37.3 size=       0KiB time=00:00:00.13 bitrate=   2.6kbits/s speed=0.0143x elapsed=0:00:09.32    \nframe=   11 fps=1.1 q=34.5 size=       0KiB time=00:00:00.15 bitrate=   2.3kbits/s speed=0.0152x elapsed=0:00:09.86    \nframe=   11 fps=1.1 q=34.5 size=       0KiB time=00:00:00.15 bitrate=   2.3kbits/s speed=0.0145x elapsed=0:00:10.36    \nframe=   12 fps=1.1 q=37.9 size=       0KiB time=00:00:00.16 bitrate=   2.1kbits/s speed=0.0153x elapsed=0:00:10.89    \nframe=   12 fps=1.1 q=37.9 size=       0KiB time=00:00:00.16 bitrate=   2.1kbits/s speed=0.0146x elapsed=0:00:11.42    \nframe=   13 fps=1.1 q=38.1 size=       0KiB time=00:00:00.18 bitrate=   1.9kbits/s speed=0.0154x elapsed=0:00:11.92    \nframe=   14 fps=1.1 q=37.2 size=       0KiB time=00:00:00.20 bitrate=   1.8kbits/s speed=0.0161x elapsed=0:00:12.44    \nframe=   15 fps=1.2 q=34.2 size=       0KiB time=00:00:00.21 bitrate=   1.6kbits/s speed=0.0167x elapsed=0:00:12.97    \nframe=   16 fps=1.2 q=35.9 size=       0KiB time=00:00:00.23 bitrate=   1.5kbits/s speed=0.0173x elapsed=0:00:13.49    \nframe=   17 fps=1.2 q=37.1 size=       0KiB time=00:00:00.25 bitrate=   1.4kbits/s speed=0.0178x elapsed=0:00:14.01    \nframe=   17 fps=1.2 q=37.1 size=       0KiB time=00:00:00.25 bitrate=   1.4kbits/s speed=0.0172x elapsed=0:00:14.53    \nframe=   18 fps=1.2 q=34.1 size=       0KiB time=00:00:00.26 bitrate=   1.3kbits/s speed=0.0177x elapsed=0:00:15.03    \nframe=   18 fps=1.2 q=34.1 size=       0KiB time=00:00:00.26 bitrate=   1.3kbits/s speed=0.0171x elapsed=0:00:15.56    \nframe=   19 fps=1.2 q=35.8 size=       0KiB time=00:00:00.28 bitrate=   1.2kbits/s speed=0.0176x elapsed=0:00:16.08    \nframe=   20 fps=1.2 q=36.2 size=       0KiB time=00:00:00.30 bitrate=   1.2kbits/s speed=0.0181x elapsed=0:00:16.60    \nframe=   22 fps=1.3 q=34.8 size=       0KiB time=00:00:00.33 bitrate=   1.1kbits/s speed=0.0195x elapsed=0:00:17.11    \nframe=   22 fps=1.2 q=34.8 size=       0KiB time=00:00:00.33 bitrate=   1.1kbits/s speed=0.0189x elapsed=0:00:17.63    \nframe=   23 fps=1.3 q=36.1 size=       0KiB time=00:00:00.35 bitrate=   1.0kbits/s speed=0.0193x elapsed=0:00:18.14    \nframe=   24 fps=1.3 q=35.9 size=       0KiB time=00:00:00.36 bitrate=   1.0kbits/s speed=0.0196x elapsed=0:00:18.66    \nframe=   24 fps=1.3 q=35.9 size=       0KiB time=00:00:00.36 bitrate=   1.0kbits/s speed=0.0191x elapsed=0:00:19.18    \nframe=   25 fps=1.3 q=32.7 size=       0KiB time=00:00:00.38 bitrate=   0.9kbits/s speed=0.0195x elapsed=0:00:19.70    \nframe=   26 fps=1.3 q=34.8 size=       0KiB time=00:00:00.40 bitrate=   0.9kbits/s speed=0.0198x elapsed=0:00:20.23    \nframe=   26 fps=1.3 q=34.8 size=       0KiB time=00:00:00.40 bitrate=   0.9kbits/s speed=0.0193x elapsed=0:00:20.75    \nframe=   27 fps=1.3 q=36.0 size=       0KiB time=00:00:00.41 bitrate=   0.8kbits/s speed=0.0196x elapsed=0:00:21.27    \nframe=   27 fps=1.2 q=36.0 size=       0KiB time=00:00:00.41 bitrate=   0.8kbits/s speed=0.0191x elapsed=0:00:21.79    \nframe=   28 fps=1.3 q=35.9 size=       0KiB time=00:00:00.43 bitrate=   0.8kbits/s speed=0.0194x elapsed=0:00:22.32    \nframe=   28 fps=1.2 q=35.9 size=       0KiB time=00:00:00.43 bitrate=   0.8kbits/s speed=0.019x elapsed=0:00:22.85    \nframe=   29 fps=1.2 q=35.8 size=       0KiB time=00:00:00.45 bitrate=   0.8kbits/s speed=0.0192x elapsed=0:00:23.38    \nframe=   29 fps=1.2 q=35.8 size=       0KiB time=00:00:00.45 bitrate=   0.8kbits/s speed=0.0188x elapsed=0:00:23.92    \nframe=   30 fps=1.2 q=31.9 size=       0KiB time=00:00:00.46 bitrate=   0.8kbits/s speed=0.0191x elapsed=0:00:24.46    \nframe=   30 fps=1.2 q=31.9 size=       0KiB time=00:00:00.46 bitrate=   0.8kbits/s speed=0.0187x elapsed=0:00:25.01    \nframe=   31 fps=1.2 q=34.6 size=       0KiB time=00:00:00.48 bitrate=   0.7kbits/s speed=0.0189x elapsed=0:00:25.54    \nframe=   32 fps=1.2 q=35.9 size=       0KiB time=00:00:00.50 bitrate=   0.7kbits/s speed=0.0192x elapsed=0:00:26.07    \nframe=   32 fps=1.2 q=35.9 size=       0KiB time=00:00:00.50 bitrate=   0.7kbits/s speed=0.0188x elapsed=0:00:26.60    \nframe=   33 fps=1.2 q=35.9 size=       0KiB time=00:00:00.51 bitrate=   0.7kbits/s speed=0.019x elapsed=0:00:27.12    \nframe=   33 fps=1.2 q=35.9 size=       0KiB time=00:00:00.51 bitrate=   0.7kbits/s speed=0.0187x elapsed=0:00:27.66    \nframe=   34 fps=1.2 q=35.6 size=       0KiB time=00:00:00.53 bitrate=   0.7kbits/s speed=0.0189x elapsed=0:00:28.18    \nframe=   34 fps=1.2 q=35.6 size=       0KiB time=00:00:00.53 bitrate=   0.7kbits/s speed=0.0186x elapsed=0:00:28.73    \nframe=   34 fps=1.2 q=35.6 size=       0KiB time=00:00:00.53 bitrate=   0.7kbits/s speed=0.0182x elapsed=0:00:29.24    \nframe=   35 fps=1.2 q=31.7 size=       0KiB time=00:00:00.55 bitrate=   0.6kbits/s speed=0.0185x elapsed=0:00:29.76    \nframe=   36 fps=1.2 q=34.1 size=       0KiB time=00:00:00.56 bitrate=   0.6kbits/s speed=0.0187x elapsed=0:00:30.28    \nframe=   36 fps=1.2 q=34.1 size=       0KiB time=00:00:00.56 bitrate=   0.6kbits/s speed=0.0184x elapsed=0:00:30.81    \nframe=   36 fps=1.1 q=34.1 size=       0KiB time=00:00:00.56 bitrate=   0.6kbits/s speed=0.0181x elapsed=0:00:31.35    \nframe=   37 fps=1.2 q=35.7 size=       0KiB time=00:00:00.58 bitrate=   0.6kbits/s speed=0.0183x elapsed=0:00:31.88    \nframe=   37 fps=1.1 q=35.7 size=       0KiB time=00:00:00.58 bitrate=   0.6kbits/s speed=0.018x elapsed=0:00:32.42    \nframe=   37 fps=1.1 q=35.7 size=       0KiB time=00:00:00.58 bitrate=   0.6kbits/s speed=0.0177x elapsed=0:00:33.00    \nframe=   37 fps=1.1 q=35.7 size=       0KiB time=00:00:00.58 bitrate=   0.6kbits/s speed=0.0173x elapsed=0:00:33.64    \nframe=   37 fps=1.1 q=35.7 size=       0KiB time=00:00:00.58 bitrate=   0.6kbits/s speed=0.017x elapsed=0:00:34.22    \nframe=   37 fps=1.1 q=35.7 size=       0KiB time=00:00:00.58 bitrate=   0.6kbits/s speed=0.0168x elapsed=0:00:34.76    \nframe=   37 fps=1.0 q=35.7 size=       0KiB time=00:00:00.58 bitrate=   0.6kbits/s speed=0.0165x elapsed=0:00:35.34    \nframe=   38 fps=1.1 q=35.8 size=       0KiB time=00:00:00.60 bitrate=   0.6kbits/s speed=0.0167x elapsed=0:00:35.87    \nframe=   38 fps=1.0 q=35.8 size=       0KiB time=00:00:00.60 bitrate=   0.6kbits/s speed=0.0165x elapsed=0:00:36.45    \nframe=   38 fps=1.0 q=35.8 size=       0KiB time=00:00:00.60 bitrate=   0.6kbits/s speed=0.0162x elapsed=0:00:37.02    \nframe=   39 fps=1.0 q=32.2 size=       0KiB time=00:00:00.61 bitrate=   0.6kbits/s speed=0.0164x elapsed=0:00:37.55    \nframe=   39 fps=1.0 q=32.2 size=       0KiB time=00:00:00.61 bitrate=   0.6kbits/s speed=0.0162x elapsed=0:00:38.07    \nframe=   39 fps=1.0 q=32.2 size=       0KiB time=00:00:00.61 bitrate=   0.6kbits/s speed=0.016x elapsed=0:00:38.61    \nframe=   40 fps=1.0 q=34.3 size=       0KiB time=00:00:00.63 bitrate=   0.6kbits/s speed=0.0162x elapsed=0:00:39.13    \nframe=   41 fps=1.0 q=35.7 size=       0KiB time=00:00:00.65 bitrate=   0.5kbits/s speed=0.0164x elapsed=0:00:39.64    \nframe=   42 fps=1.0 q=35.9 size=       0KiB time=00:00:00.66 bitrate=   0.5kbits/s speed=0.0166x elapsed=0:00:40.19    \nframe=   42 fps=1.0 q=35.9 size=       0KiB time=00:00:00.66 bitrate=   0.5kbits/s speed=0.0164x elapsed=0:00:40.74    \nframe=   43 fps=1.0 q=32.4 size=       0KiB time=00:00:00.68 bitrate=   0.5kbits/s speed=0.0166x elapsed=0:00:41.26    \nframe=   44 fps=1.1 q=34.3 size=       0KiB time=00:00:00.70 bitrate=   0.5kbits/s speed=0.0168x elapsed=0:00:41.77    \nframe=   44 fps=1.0 q=34.3 size=       0KiB time=00:00:00.70 bitrate=   0.5kbits/s speed=0.0165x elapsed=0:00:42.30    \nframe=   44 fps=1.0 q=34.3 size=       0KiB time=00:00:00.70 bitrate=   0.5kbits/s speed=0.0163x elapsed=0:00:42.82    \nframe=   45 fps=1.0 q=35.9 size=       0KiB time=00:00:00.71 bitrate=   0.5kbits/s speed=0.0165x elapsed=0:00:43.34    \nframe=   46 fps=1.0 q=31.9 size=       0KiB time=00:00:00.73 bitrate=   0.5kbits/s speed=0.0167x elapsed=0:00:43.84    \nframe=   47 fps=1.1 q=34.3 size=     256KiB time=00:00:00.75 bitrate=2796.7kbits/s speed=0.0169x elapsed=0:00:44.36    \nframe=   47 fps=1.0 q=34.3 size=     256KiB time=00:00:00.75 bitrate=2796.7kbits/s speed=0.0167x elapsed=0:00:44.89    \nframe=   48 fps=1.1 q=35.7 size=     256KiB time=00:00:00.76 bitrate=2735.9kbits/s speed=0.0169x elapsed=0:00:45.40    \nframe=   49 fps=1.1 q=35.7 size=     256KiB time=00:00:00.78 bitrate=2677.7kbits/s speed=0.0171x elapsed=0:00:45.92    \nframe=   51 fps=1.1 q=34.1 size=     256KiB time=00:00:00.81 bitrate=2568.4kbits/s speed=0.0176x elapsed=0:00:46.44    \nframe=   51 fps=1.1 q=34.1 size=     256KiB time=00:00:00.81 bitrate=2568.4kbits/s speed=0.0174x elapsed=0:00:46.98    \nframe=   52 fps=1.1 q=35.9 size=     256KiB time=00:00:00.83 bitrate=2517.0kbits/s speed=0.0175x elapsed=0:00:47.52    \nframe=   52 fps=1.1 q=35.9 size=     256KiB time=00:00:00.83 bitrate=2517.0kbits/s speed=0.0173x elapsed=0:00:48.04    \nframe=   53 fps=1.1 q=35.8 size=     256KiB time=00:00:00.85 bitrate=2467.7kbits/s speed=0.0175x elapsed=0:00:48.58    \nframe=   54 fps=1.1 q=32.1 size=     256KiB time=00:00:00.86 bitrate=2420.2kbits/s speed=0.0176x elapsed=0:00:49.11    \nframe=   55 fps=1.1 q=33.9 size=     256KiB time=00:00:00.88 bitrate=2374.5kbits/s speed=0.0178x elapsed=0:00:49.66    \nframe=   55 fps=1.1 q=33.9 size=     256KiB time=00:00:00.88 bitrate=2374.5kbits/s speed=0.0176x elapsed=0:00:50.17    \nframe=   56 fps=1.1 q=36.4 size=     256KiB time=00:00:00.90 bitrate=2330.6kbits/s speed=0.0178x elapsed=0:00:50.70    \nframe=   56 fps=1.1 q=36.4 size=     256KiB time=00:00:00.90 bitrate=2330.6kbits/s speed=0.0176x elapsed=0:00:51.26    \nframe=   56 fps=1.1 q=36.4 size=     256KiB time=00:00:00.90 bitrate=2330.6kbits/s speed=0.0174x elapsed=0:00:51.78    \nframe=   57 fps=1.1 q=36.2 size=     256KiB time=00:00:00.91 bitrate=2288.2kbits/s speed=0.0175x elapsed=0:00:52.30    \nframe=   57 fps=1.1 q=36.2 size=     256KiB time=00:00:00.91 bitrate=2288.2kbits/s speed=0.0174x elapsed=0:00:52.82    \nframe=   58 fps=1.1 q=32.4 size=     256KiB time=00:00:00.93 bitrate=2247.3kbits/s speed=0.0175x elapsed=0:00:53.35    \nframe=   59 fps=1.1 q=34.5 size=     256KiB time=00:00:00.95 bitrate=2207.9kbits/s speed=0.0176x elapsed=0:00:53.87    \nframe=   59 fps=1.1 q=34.5 size=     256KiB time=00:00:00.95 bitrate=2207.9kbits/s speed=0.0175x elapsed=0:00:54.38    \nframe=   60 fps=1.1 q=36.5 size=     256KiB time=00:00:00.96 bitrate=2169.8kbits/s speed=0.0176x elapsed=0:00:54.93    \nframe=   60 fps=1.1 q=36.5 size=     256KiB time=00:00:00.96 bitrate=2169.8kbits/s speed=0.0174x elapsed=0:00:55.45    \nframe=   61 fps=1.1 q=36.4 size=     256KiB time=00:00:00.98 bitrate=2133.1kbits/s speed=0.0176x elapsed=0:00:55.98    \nframe=   61 fps=1.1 q=36.4 size=     256KiB time=00:00:00.98 bitrate=2133.1kbits/s speed=0.0174x elapsed=0:00:56.52    \nframe=   61 fps=1.1 q=36.4 size=     256KiB time=00:00:00.98 bitrate=2133.1kbits/s speed=0.0172x elapsed=0:00:57.06    \nframe=   61 fps=1.1 q=36.4 size=     256KiB time=00:00:00.98 bitrate=2133.1kbits/s speed=0.0171x elapsed=0:00:57.58    \nframe=   62 fps=1.1 q=31.9 size=     256KiB time=00:00:01.00 bitrate=2097.5kbits/s speed=0.0172x elapsed=0:00:58.11    \nframe=   63 fps=1.1 q=34.0 size=     256KiB time=00:00:01.01 bitrate=2063.1kbits/s speed=0.0173x elapsed=0:00:58.63    \nframe=   63 fps=1.1 q=34.0 size=     256KiB time=00:00:01.01 bitrate=2063.1kbits/s speed=0.0172x elapsed=0:00:59.14    \nframe=   63 fps=1.1 q=34.0 size=     256KiB time=00:00:01.01 bitrate=2063.1kbits/s speed=0.017x elapsed=0:00:59.67    \nframe=   63 fps=1.0 q=34.0 size=     256KiB time=00:00:01.01 bitrate=2063.1kbits/s speed=0.0169x elapsed=0:01:00.18    \nframe=   64 fps=1.1 q=36.4 size=     256KiB time=00:00:01.03 bitrate=2029.8kbits/s speed=0.017x elapsed=0:01:00.71    \nframe=   64 fps=1.0 q=36.4 size=     256KiB time=00:00:01.03 bitrate=2029.8kbits/s speed=0.0169x elapsed=0:01:01.23    \nframe=   64 fps=1.0 q=36.4 size=     256KiB time=00:00:01.03 bitrate=2029.8kbits/s speed=0.0167x elapsed=0:01:01.76    \nframe=   65 fps=1.0 q=36.5 size=     256KiB time=00:00:01.05 bitrate=1997.6kbits/s speed=0.0169x elapsed=0:01:02.29    \nframe=   66 fps=1.1 q=31.7 size=     256KiB time=00:00:01.06 bitrate=1966.4kbits/s speed=0.017x elapsed=0:01:02.79    \nframe=   67 fps=1.1 q=34.3 size=     256KiB time=00:00:01.08 bitrate=1936.2kbits/s speed=0.0171x elapsed=0:01:03.32    \nframe=   67 fps=1.0 q=34.3 size=     256KiB time=00:00:01.08 bitrate=1936.2kbits/s speed=0.017x elapsed=0:01:03.87    \nframe=   67 fps=1.0 q=34.3 size=     256KiB time=00:00:01.08 bitrate=1936.2kbits/s speed=0.0168x elapsed=0:01:04.41    \nframe=   68 fps=1.0 q=36.1 size=     256KiB time=00:00:01.10 bitrate=1906.8kbits/s speed=0.0169x elapsed=0:01:04.97    \nframe=   68 fps=1.0 q=36.1 size=     256KiB time=00:00:01.10 bitrate=1906.8kbits/s speed=0.0168x elapsed=0:01:05.52    \nframe=   69 fps=1.0 q=36.1 size=     256KiB time=00:00:01.11 bitrate=1878.4kbits/s speed=0.0169x elapsed=0:01:06.03    \nframe=   69 fps=1.0 q=36.1 size=     256KiB time=00:00:01.11 bitrate=1878.4kbits/s speed=0.0168x elapsed=0:01:06.55    \nframe=   69 fps=1.0 q=36.1 size=     256KiB time=00:00:01.11 bitrate=1878.4kbits/s speed=0.0166x elapsed=0:01:07.06    \nframe=   70 fps=1.0 q=32.5 size=     256KiB time=00:00:01.13 bitrate=1850.7kbits/s speed=0.0168x elapsed=0:01:07.60    \nframe=   71 fps=1.0 q=34.3 size=     256KiB time=00:00:01.15 bitrate=1823.9kbits/s speed=0.0169x elapsed=0:01:08.12    \nframe=   71 fps=1.0 q=34.3 size=     256KiB time=00:00:01.15 bitrate=1823.9kbits/s speed=0.0167x elapsed=0:01:08.65    \nframe=   71 fps=1.0 q=34.3 size=     256KiB time=00:00:01.15 bitrate=1823.9kbits/s speed=0.0166x elapsed=0:01:09.18    \nframe=   72 fps=1.0 q=36.2 size=     256KiB time=00:00:01.16 bitrate=1797.9kbits/s speed=0.0167x elapsed=0:01:09.74    \nframe=   72 fps=1.0 q=36.2 size=     256KiB time=00:00:01.16 bitrate=1797.9kbits/s speed=0.0166x elapsed=0:01:10.25    \nframe=   72 fps=1.0 q=36.2 size=     256KiB time=00:00:01.16 bitrate=1797.9kbits/s speed=0.0165x elapsed=0:01:10.77    \nframe=   72 fps=1.0 q=36.2 size=     256KiB time=00:00:01.16 bitrate=1797.9kbits/s speed=0.0164x elapsed=0:01:11.28    \nframe=   73 fps=1.0 q=36.5 size=     256KiB time=00:00:01.18 bitrate=1772.5kbits/s speed=0.0165x elapsed=0:01:11.82    \nframe=   73 fps=1.0 q=36.5 size=     256KiB time=00:00:01.18 bitrate=1772.5kbits/s speed=0.0164x elapsed=0:01:12.34    \nframe=   73 fps=1.0 q=36.5 size=     256KiB time=00:00:01.18 bitrate=1772.5kbits/s speed=0.0162x elapsed=0:01:12.92    \nframe=   74 fps=1.0 q=32.2 size=     256KiB time=00:00:01.20 bitrate=1747.9kbits/s speed=0.0163x elapsed=0:01:13.46    \nframe=   74 fps=1.0 q=32.2 size=     256KiB time=00:00:01.20 bitrate=1747.9kbits/s speed=0.0162x elapsed=0:01:13.99    \nframe=   74 fps=1.0 q=32.2 size=     256KiB time=00:00:01.20 bitrate=1747.9kbits/s speed=0.0161x elapsed=0:01:14.51    \nframe=   75 fps=1.0 q=35.1 size=     256KiB time=00:00:01.21 bitrate=1724.0kbits/s speed=0.0162x elapsed=0:01:15.03    \nframe=   75 fps=1.0 q=35.1 size=     256KiB time=00:00:01.21 bitrate=1724.0kbits/s speed=0.0161x elapsed=0:01:15.55    \nframe=   76 fps=1.0 q=36.5 size=     256KiB time=00:00:01.23 bitrate=1700.7kbits/s speed=0.0162x elapsed=0:01:16.07    \nframe=   76 fps=1.0 q=36.5 size=     256KiB time=00:00:01.23 bitrate=1700.7kbits/s speed=0.0161x elapsed=0:01:16.60    \nframe=   77 fps=1.0 q=36.1 size=     256KiB time=00:00:01.25 bitrate=1678.0kbits/s speed=0.0162x elapsed=0:01:17.11    \nframe=   78 fps=1.0 q=36.5 size=     256KiB time=00:00:01.26 bitrate=1655.9kbits/s speed=0.0163x elapsed=0:01:17.64    \nframe=   79 fps=1.0 q=33.2 size=     256KiB time=00:00:01.28 bitrate=1634.4kbits/s speed=0.0164x elapsed=0:01:18.16    \nframe=   79 fps=1.0 q=33.2 size=     256KiB time=00:00:01.28 bitrate=1634.4kbits/s speed=0.0163x elapsed=0:01:18.69    \nframe=   79 fps=1.0 q=33.2 size=     256KiB time=00:00:01.28 bitrate=1634.4kbits/s speed=0.0162x elapsed=0:01:19.20    \nframe=   80 fps=1.0 q=34.8 size=     256KiB time=00:00:01.30 bitrate=1613.5kbits/s speed=0.0163x elapsed=0:01:19.73    \nframe=   80 fps=1.0 q=34.8 size=     256KiB time=00:00:01.30 bitrate=1613.5kbits/s speed=0.0162x elapsed=0:01:20.26    \nframe=   80 fps=1.0 q=34.8 size=     256KiB time=00:00:01.30 bitrate=1613.5kbits/s speed=0.0161x elapsed=0:01:20.79    \nframe=   80 fps=1.0 q=34.8 size=     256KiB time=00:00:01.30 bitrate=1613.5kbits/s speed=0.016x elapsed=0:01:21.36    \nframe=   80 fps=1.0 q=34.8 size=     256KiB time=00:00:01.30 bitrate=1613.5kbits/s speed=0.0159x elapsed=0:01:21.93    \nframe=   81 fps=1.0 q=36.3 size=     256KiB time=00:00:01.31 bitrate=1593.0kbits/s speed=0.016x elapsed=0:01:22.47    \nframe=   81 fps=1.0 q=36.3 size=     256KiB time=00:00:01.31 bitrate=1593.0kbits/s speed=0.0159x elapsed=0:01:23.01    \nframe=   81 fps=1.0 q=36.3 size=     256KiB time=00:00:01.31 bitrate=1593.0kbits/s speed=0.0158x elapsed=0:01:23.54    \nframe=   82 fps=1.0 q=36.3 size=     256KiB time=00:00:01.33 bitrate=1573.1kbits/s speed=0.0159x elapsed=0:01:24.07    \nframe=   84 fps=1.0 q=35.0 size=     256KiB time=00:00:01.36 bitrate=1534.8kbits/s speed=0.0162x elapsed=0:01:24.59    \nframe=   85 fps=1.0 q=36.6 size=     256KiB time=00:00:01.38 bitrate=1516.3kbits/s speed=0.0163x elapsed=0:01:25.11    \nframe=   86 fps=1.0 q=36.4 size=     256KiB time=00:00:01.40 bitrate=1498.2kbits/s speed=0.0163x elapsed=0:01:25.64    \nframe=   87 fps=1.0 q=32.5 size=     256KiB time=00:00:01.41 bitrate=1480.6kbits/s speed=0.0164x elapsed=0:01:26.14    \nframe=   88 fps=1.0 q=34.9 size=     512KiB time=00:00:01.43 bitrate=2926.5kbits/s speed=0.0165x elapsed=0:01:26.66    \nframe=   89 fps=1.0 q=36.0 size=     512KiB time=00:00:01.45 bitrate=2892.9kbits/s speed=0.0166x elapsed=0:01:27.18    \nframe=   90 fps=1.0 q=36.4 size=     512KiB time=00:00:01.46 bitrate=2860.0kbits/s speed=0.0167x elapsed=0:01:27.69    \nframe=   91 fps=1.0 q=32.7 size=     512KiB time=00:00:01.48 bitrate=2827.9kbits/s speed=0.0168x elapsed=0:01:28.22    \nframe=   91 fps=1.0 q=32.7 size=     512KiB time=00:00:01.48 bitrate=2827.9kbits/s speed=0.0167x elapsed=0:01:28.74    \nframe=   91 fps=1.0 q=32.7 size=     512KiB time=00:00:01.48 bitrate=2827.9kbits/s speed=0.0166x elapsed=0:01:29.25    \nframe=   92 fps=1.0 q=34.8 size=     512KiB time=00:00:01.50 bitrate=2796.4kbits/s speed=0.0167x elapsed=0:01:29.80    \nframe=   92 fps=1.0 q=34.8 size=     512KiB time=00:00:01.50 bitrate=2796.4kbits/s speed=0.0166x elapsed=0:01:30.33    \nframe=   93 fps=1.0 q=36.4 size=     512KiB time=00:00:01.51 bitrate=2765.7kbits/s speed=0.0167x elapsed=0:01:30.86    \nframe=   93 fps=1.0 q=36.4 size=     512KiB time=00:00:01.51 bitrate=2765.7kbits/s speed=0.0166x elapsed=0:01:31.39    \nframe=   93 fps=1.0 q=36.4 size=     512KiB time=00:00:01.51 bitrate=2765.7kbits/s speed=0.0165x elapsed=0:01:31.94    \nframe=   94 fps=1.0 q=36.1 size=     512KiB time=00:00:01.53 bitrate=2735.6kbits/s speed=0.0166x elapsed=0:01:32.46    \nframe=   94 fps=1.0 q=36.1 size=     512KiB time=00:00:01.53 bitrate=2735.6kbits/s speed=0.0165x elapsed=0:01:33.00    \nframe=   95 fps=1.0 q=32.4 size=     512KiB time=00:00:01.55 bitrate=2706.2kbits/s speed=0.0166x elapsed=0:01:33.52    \nframe=   95 fps=1.0 q=32.4 size=     512KiB time=00:00:01.55 bitrate=2706.2kbits/s speed=0.0165x elapsed=0:01:34.05    \nframe=   96 fps=1.0 q=34.2 size=     512KiB time=00:00:01.56 bitrate=2677.4kbits/s speed=0.0166x elapsed=0:01:34.58    \nframe=   96 fps=1.0 q=34.2 size=     512KiB time=00:00:01.56 bitrate=2677.4kbits/s speed=0.0165x elapsed=0:01:35.10    \nframe=   97 fps=1.0 q=35.6 size=     512KiB time=00:00:01.58 bitrate=2649.3kbits/s speed=0.0166x elapsed=0:01:35.62    \nframe=   97 fps=1.0 q=35.6 size=     512KiB time=00:00:01.58 bitrate=2649.3kbits/s speed=0.0165x elapsed=0:01:36.12    \nframe=   98 fps=1.0 q=35.6 size=     512KiB time=00:00:01.60 bitrate=2621.7kbits/s speed=0.0166x elapsed=0:01:36.64    \nframe=   99 fps=1.0 q=32.8 size=     512KiB time=00:00:01.61 bitrate=2594.6kbits/s speed=0.0166x elapsed=0:01:37.17    \nframe=   99 fps=1.0 q=32.8 size=     512KiB time=00:00:01.61 bitrate=2594.6kbits/s speed=0.0165x elapsed=0:01:37.70    \nframe=   99 fps=1.0 q=32.8 size=     512KiB time=00:00:01.61 bitrate=2594.6kbits/s speed=0.0165x elapsed=0:01:38.24    \nframe=  100 fps=1.0 q=35.7 size=     512KiB time=00:00:01.63 bitrate=2568.2kbits/s speed=0.0165x elapsed=0:01:38.80    \nframe=  100 fps=1.0 q=35.7 size=     512KiB time=00:00:01.63 bitrate=2568.2kbits/s speed=0.0164x elapsed=0:01:39.32    \nframe=  101 fps=1.0 q=32.7 size=     512KiB time=00:00:01.65 bitrate=2542.2kbits/s speed=0.0165x elapsed=0:01:39.85    \nframe=  102 fps=1.0 q=34.2 size=     512KiB time=00:00:01.66 bitrate=2516.8kbits/s speed=0.0166x elapsed=0:01:40.39    \nframe=  102 fps=1.0 q=34.2 size=     512KiB time=00:00:01.66 bitrate=2516.8kbits/s speed=0.0165x elapsed=0:01:40.92    \nframe=  103 fps=1.0 q=35.8 size=     512KiB time=00:00:01.68 bitrate=2491.9kbits/s speed=0.0166x elapsed=0:01:41.46    \nframe=  103 fps=1.0 q=35.8 size=     512KiB time=00:00:01.68 bitrate=2491.9kbits/s speed=0.0165x elapsed=0:01:41.97    \nframe=  104 fps=1.0 q=35.7 size=     512KiB time=00:00:01.70 bitrate=2467.4kbits/s speed=0.0166x elapsed=0:01:42.50    \nframe=  104 fps=1.0 q=35.7 size=     512KiB time=00:00:01.70 bitrate=2467.4kbits/s speed=0.0165x elapsed=0:01:43.01    \nframe=  105 fps=1.0 q=32.9 size=     512KiB time=00:00:01.71 bitrate=2443.5kbits/s speed=0.0166x elapsed=0:01:43.53    \nframe=  106 fps=1.0 q=34.4 size=     512KiB time=00:00:01.73 bitrate=2420.0kbits/s speed=0.0167x elapsed=0:01:44.06    \nframe=  106 fps=1.0 q=34.4 size=     512KiB time=00:00:01.73 bitrate=2420.0kbits/s speed=0.0166x elapsed=0:01:44.58    \nframe=  106 fps=1.0 q=34.4 size=     512KiB time=00:00:01.73 bitrate=2420.0kbits/s speed=0.0165x elapsed=0:01:45.12    \nframe=  107 fps=1.0 q=35.9 size=     512KiB time=00:00:01.73 bitrate=2420.0kbits/s speed=0.0164x elapsed=0:01:45.64    \nframe=  107 fps=1.0 q=35.9 size=     512KiB time=00:00:01.75 bitrate=2396.9kbits/s speed=0.0165x elapsed=0:01:46.19    \nframe=  107 fps=1.0 q=35.9 size=     512KiB time=00:00:01.75 bitrate=2396.9kbits/s speed=0.0164x elapsed=0:01:46.72    \nframe=  107 fps=1.0 q=35.9 size=     512KiB time=00:00:01.75 bitrate=2396.9kbits/s speed=0.0163x elapsed=0:01:47.23    \nframe=  108 fps=1.0 q=35.7 size=     512KiB time=00:00:01.76 bitrate=2374.3kbits/s speed=0.0164x elapsed=0:01:47.75    \nframe=  108 fps=1.0 q=35.7 size=     512KiB time=00:00:01.76 bitrate=2374.3kbits/s speed=0.0163x elapsed=0:01:48.28    \nframe=  109 fps=1.0 q=32.9 size=     512KiB time=00:00:01.78 bitrate=2352.1kbits/s speed=0.0164x elapsed=0:01:48.80    \nframe=  109 fps=1.0 q=32.9 size=     512KiB time=00:00:01.78 bitrate=2352.1kbits/s speed=0.0163x elapsed=0:01:49.32    \nframe=  110 fps=1.0 q=34.3 size=     512KiB time=00:00:01.80 bitrate=2330.4kbits/s speed=0.0164x elapsed=0:01:49.84    \nframe=  110 fps=1.0 q=34.3 size=     512KiB time=00:00:01.80 bitrate=2330.4kbits/s speed=0.0163x elapsed=0:01:50.38    \nframe=  110 fps=1.0 q=34.3 size=     512KiB time=00:00:01.80 bitrate=2330.4kbits/s speed=0.0162x elapsed=0:01:50.93    \nframe=  111 fps=1.0 q=35.8 size=     512KiB time=00:00:01.81 bitrate=2309.0kbits/s speed=0.0163x elapsed=0:01:51.45    \nframe=  111 fps=1.0 q=35.8 size=     512KiB time=00:00:01.81 bitrate=2309.0kbits/s speed=0.0162x elapsed=0:01:52.02    \nframe=  112 fps=1.0 q=35.8 size=     512KiB time=00:00:01.83 bitrate=2288.0kbits/s speed=0.0163x elapsed=0:01:52.56    \nframe=  112 fps=1.0 q=35.8 size=     512KiB time=00:00:01.83 bitrate=2288.0kbits/s speed=0.0162x elapsed=0:01:53.07    \nframe=  113 fps=1.0 q=33.0 size=     512KiB time=00:00:01.85 bitrate=2267.4kbits/s speed=0.0163x elapsed=0:01:53.61    \nframe=  113 fps=1.0 q=33.0 size=     512KiB time=00:00:01.85 bitrate=2267.4kbits/s speed=0.0162x elapsed=0:01:54.14    \nframe=  114 fps=1.0 q=34.6 size=     512KiB time=00:00:01.86 bitrate=2247.1kbits/s speed=0.0163x elapsed=0:01:54.68    \nframe=  114 fps=1.0 q=34.6 size=     512KiB time=00:00:01.86 bitrate=2247.1kbits/s speed=0.0162x elapsed=0:01:55.20    \nframe=  115 fps=1.0 q=35.9 size=     512KiB time=00:00:01.88 bitrate=2227.3kbits/s speed=0.0163x elapsed=0:01:55.73    \nframe=  115 fps=1.0 q=35.9 size=     512KiB time=00:00:01.88 bitrate=2227.3kbits/s speed=0.0162x elapsed=0:01:56.30    \nframe=  115 fps=1.0 q=35.9 size=     512KiB time=00:00:01.88 bitrate=2227.3kbits/s speed=0.0161x elapsed=0:01:56.83    \nframe=  116 fps=1.0 q=36.0 size=     512KiB time=00:00:01.90 bitrate=2207.7kbits/s speed=0.0162x elapsed=0:01:57.37    \nframe=  117 fps=1.0 q=33.2 size=     512KiB time=00:00:01.91 bitrate=2188.5kbits/s speed=0.0163x elapsed=0:01:57.89    \nframe=  117 fps=1.0 q=33.2 size=     512KiB time=00:00:01.91 bitrate=2188.5kbits/s speed=0.0162x elapsed=0:01:58.41    \nframe=  118 fps=1.0 q=34.5 size=     512KiB time=00:00:01.93 bitrate=2169.7kbits/s speed=0.0163x elapsed=0:01:58.93    \nframe=  118 fps=1.0 q=34.5 size=     512KiB time=00:00:01.93 bitrate=2169.7kbits/s speed=0.0162x elapsed=0:01:59.45    \nframe=  118 fps=1.0 q=34.5 size=     512KiB time=00:00:01.93 bitrate=2169.7kbits/s speed=0.0161x elapsed=0:01:59.98    \nframe=  119 fps=1.0 q=36.0 size=     512KiB time=00:00:01.95 bitrate=2151.1kbits/s speed=0.0162x elapsed=0:02:00.49    \nframe=  120 fps=1.0 q=36.1 size=     512KiB time=00:00:01.96 bitrate=2132.9kbits/s speed=0.0162x elapsed=0:02:01.04    \nframe=  120 fps=1.0 q=36.1 size=     512KiB time=00:00:01.96 bitrate=2132.9kbits/s speed=0.0162x elapsed=0:02:01.57    \nframe=  122 fps=1.0 q=34.7 size=     512KiB time=00:00:02.00 bitrate=2097.3kbits/s speed=0.0164x elapsed=0:02:02.09    \nframe=  122 fps=1.0 q=34.7 size=     512KiB time=00:00:02.00 bitrate=2097.3kbits/s speed=0.0163x elapsed=0:02:02.62    \nframe=  122 fps=1.0 q=34.7 size=     512KiB time=00:00:02.00 bitrate=2097.3kbits/s speed=0.0162x elapsed=0:02:03.15    \nframe=  124 fps=1.0 q=36.1 size=     512KiB time=00:00:02.03 bitrate=2062.9kbits/s speed=0.0164x elapsed=0:02:03.68    \nframe=  124 fps=1.0 q=36.1 size=     512KiB time=00:00:02.03 bitrate=2062.9kbits/s speed=0.0164x elapsed=0:02:04.21    \nframe=  126 fps=1.0 q=34.6 size=     512KiB time=00:00:02.06 bitrate=2029.7kbits/s speed=0.0166x elapsed=0:02:04.74    \nframe=  126 fps=1.0 q=34.6 size=     512KiB time=00:00:02.06 bitrate=2029.7kbits/s speed=0.0165x elapsed=0:02:05.27    \nframe=  126 fps=1.0 q=34.6 size=     512KiB time=00:00:02.06 bitrate=2029.7kbits/s speed=0.0164x elapsed=0:02:05.80    \nframe=  127 fps=1.0 q=36.1 size=     512KiB time=00:00:02.08 bitrate=2013.4kbits/s speed=0.0165x elapsed=0:02:06.33    \nframe=  128 fps=1.0 q=36.1 size=     512KiB time=00:00:02.10 bitrate=1997.5kbits/s speed=0.0166x elapsed=0:02:06.87    \nframe=  129 fps=1.0 q=33.7 size=     512KiB time=00:00:02.11 bitrate=1981.7kbits/s speed=0.0166x elapsed=0:02:07.39    \nframe=  130 fps=1.0 q=34.6 size=     768KiB time=00:00:02.13 bitrate=2949.3kbits/s speed=0.0167x elapsed=0:02:07.91    \nframe=  131 fps=1.0 q=36.2 size=     768KiB time=00:00:02.15 bitrate=2926.4kbits/s speed=0.0167x elapsed=0:02:08.44    \nframe=  131 fps=1.0 q=36.2 size=     768KiB time=00:00:02.15 bitrate=2926.4kbits/s speed=0.0167x elapsed=0:02:08.98    \nframe=  131 fps=1.0 q=36.2 size=     768KiB time=00:00:02.15 bitrate=2926.4kbits/s speed=0.0166x elapsed=0:02:09.50    \nframe=  132 fps=1.0 q=36.2 size=     768KiB time=00:00:02.16 bitrate=2903.9kbits/s speed=0.0167x elapsed=0:02:10.02    \nframe=  134 fps=1.0 q=34.9 size=     768KiB time=00:00:02.20 bitrate=2859.9kbits/s speed=0.0169x elapsed=0:02:10.54    \nframe=  134 fps=1.0 q=34.9 size=     768KiB time=00:00:02.20 bitrate=2859.9kbits/s speed=0.0168x elapsed=0:02:11.06    \nframe=  134 fps=1.0 q=34.9 size=     768KiB time=00:00:02.20 bitrate=2859.9kbits/s speed=0.0167x elapsed=0:02:11.61    \nframe=  136 fps=1.0 q=36.2 size=     768KiB time=00:00:02.23 bitrate=2817.2kbits/s speed=0.0169x elapsed=0:02:12.14    \nframe=  137 fps=1.0 q=33.8 size=     768KiB time=00:00:02.25 bitrate=2796.4kbits/s speed=0.017x elapsed=0:02:12.67    \nframe=  138 fps=1.0 q=34.9 size=     768KiB time=00:00:02.26 bitrate=2775.8kbits/s speed=0.017x elapsed=0:02:13.20    \nframe=  138 fps=1.0 q=34.9 size=     768KiB time=00:00:02.26 bitrate=2775.8kbits/s speed=0.0169x elapsed=0:02:13.72    \nframe=  139 fps=1.0 q=36.4 size=     768KiB time=00:00:02.28 bitrate=2755.5kbits/s speed=0.017x elapsed=0:02:14.24    \nframe=  139 fps=1.0 q=36.4 size=     768KiB time=00:00:02.28 bitrate=2755.5kbits/s speed=0.0169x elapsed=0:02:14.75    \nframe=  140 fps=1.0 q=36.3 size=     768KiB time=00:00:02.30 bitrate=2735.6kbits/s speed=0.017x elapsed=0:02:15.28    \nframe=  140 fps=1.0 q=36.3 size=     768KiB time=00:00:02.30 bitrate=2735.6kbits/s speed=0.0169x elapsed=0:02:15.80    \nframe=  141 fps=1.0 q=33.8 size=     768KiB time=00:00:02.31 bitrate=2715.9kbits/s speed=0.017x elapsed=0:02:16.32    \nframe=  142 fps=1.0 q=34.9 size=     768KiB time=00:00:02.33 bitrate=2696.5kbits/s speed=0.0171x elapsed=0:02:16.84    \nframe=  142 fps=1.0 q=34.9 size=     768KiB time=00:00:02.33 bitrate=2696.5kbits/s speed=0.017x elapsed=0:02:17.35    \nframe=  144 fps=1.0 q=36.4 size=     768KiB time=00:00:02.36 bitrate=2658.5kbits/s speed=0.0172x elapsed=0:02:17.86    \nframe=  145 fps=1.0 q=33.8 size=     768KiB time=00:00:02.38 bitrate=2639.9kbits/s speed=0.0172x elapsed=0:02:18.38    \nframe=  146 fps=1.1 q=35.1 size=     768KiB time=00:00:02.40 bitrate=2621.6kbits/s speed=0.0173x elapsed=0:02:18.92    \nframe=  146 fps=1.0 q=35.1 size=     768KiB time=00:00:02.40 bitrate=2621.6kbits/s speed=0.0172x elapsed=0:02:19.45    \nframe=  148 fps=1.1 q=36.4 size=     768KiB time=00:00:02.43 bitrate=2585.7kbits/s speed=0.0174x elapsed=0:02:19.97    \nframe=  148 fps=1.1 q=36.4 size=     768KiB time=00:00:02.43 bitrate=2585.7kbits/s speed=0.0173x elapsed=0:02:20.49    \nframe=  149 fps=1.1 q=34.0 size=     768KiB time=00:00:02.45 bitrate=2568.1kbits/s speed=0.0174x elapsed=0:02:21.01    \nframe=  151 fps=1.1 q=36.4 size=     768KiB time=00:00:02.48 bitrate=2533.6kbits/s speed=0.0175x elapsed=0:02:21.52    \nframe=  152 fps=1.1 q=37.2 size=     768KiB time=00:00:02.50 bitrate=2516.7kbits/s speed=0.0176x elapsed=0:02:22.04    \nframe=  153 fps=1.1 q=33.8 size=     768KiB time=00:00:02.51 bitrate=2500.1kbits/s speed=0.0177x elapsed=0:02:22.56    \nframe=  154 fps=1.1 q=35.2 size=     768KiB time=00:00:02.53 bitrate=2483.6kbits/s speed=0.0177x elapsed=0:02:23.09    \nframe=  155 fps=1.1 q=37.3 size=     768KiB time=00:00:02.55 bitrate=2467.4kbits/s speed=0.0178x elapsed=0:02:23.62    \nframe=  156 fps=1.1 q=37.3 size=     768KiB time=00:00:02.56 bitrate=2451.4kbits/s speed=0.0178x elapsed=0:02:24.12    \nframe=  158 fps=1.1 q=36.0 size=     768KiB time=00:00:02.60 bitrate=2419.9kbits/s speed=0.018x elapsed=0:02:24.64    \nframe=  158 fps=1.1 q=36.0 size=     768KiB time=00:00:02.60 bitrate=2419.9kbits/s speed=0.0179x elapsed=0:02:25.16    \nframe=  160 fps=1.1 q=37.3 size=     768KiB time=00:00:02.63 bitrate=2389.3kbits/s speed=0.0181x elapsed=0:02:25.67    \nframe=  161 fps=1.1 q=34.0 size=     768KiB time=00:00:02.65 bitrate=2374.3kbits/s speed=0.0181x elapsed=0:02:26.19    \nframe=  162 fps=1.1 q=36.0 size=     768KiB time=00:00:02.66 bitrate=2359.4kbits/s speed=0.0182x elapsed=0:02:26.71    \nframe=  162 fps=1.1 q=36.0 size=     768KiB time=00:00:02.66 bitrate=2359.4kbits/s speed=0.0181x elapsed=0:02:27.22    \nframe=  164 fps=1.1 q=37.3 size=     768KiB time=00:00:02.70 bitrate=2330.3kbits/s speed=0.0183x elapsed=0:02:27.74    \nframe=  166 fps=1.1 q=36.0 size=     768KiB time=00:00:02.73 bitrate=2301.9kbits/s speed=0.0184x elapsed=0:02:28.26    \nframe=  166 fps=1.1 q=36.0 size=     768KiB time=00:00:02.73 bitrate=2301.9kbits/s speed=0.0184x elapsed=0:02:28.78    \nframe=  167 fps=1.1 q=37.4 size=    1024KiB time=00:00:02.75 bitrate=3050.5kbits/s speed=0.0184x elapsed=0:02:29.30    \nframe=  168 fps=1.1 q=37.3 size=    1024KiB time=00:00:02.76 bitrate=3032.2kbits/s speed=0.0185x elapsed=0:02:29.83    \nframe=  169 fps=1.1 q=34.6 size=    1024KiB time=00:00:02.78 bitrate=3014.0kbits/s speed=0.0185x elapsed=0:02:30.35    \nframe=  170 fps=1.1 q=36.0 size=    1024KiB time=00:00:02.80 bitrate=2996.1kbits/s speed=0.0186x elapsed=0:02:30.86    \nframe=  171 fps=1.1 q=37.3 size=    1024KiB time=00:00:02.81 bitrate=2978.3kbits/s speed=0.0186x elapsed=0:02:31.38    \nframe=  173 fps=1.1 q=34.5 size=    1024KiB time=00:00:02.85 bitrate=2943.5kbits/s speed=0.0188x elapsed=0:02:31.89    \nframe=  173 fps=1.1 q=34.5 size=    1024KiB time=00:00:02.85 bitrate=2943.5kbits/s speed=0.0187x elapsed=0:02:32.42    \nframe=  175 fps=1.1 q=37.3 size=    1024KiB time=00:00:02.88 bitrate=2909.5kbits/s speed=0.0189x elapsed=0:02:32.95    \nframe=  176 fps=1.1 q=37.2 size=    1024KiB time=00:00:02.90 bitrate=2892.7kbits/s speed=0.0189x elapsed=0:02:33.50    \nframe=  176 fps=1.1 q=37.2 size=    1024KiB time=00:00:02.90 bitrate=2892.7kbits/s speed=0.0188x elapsed=0:02:34.07    \nframe=  177 fps=1.1 q=34.5 size=    1024KiB time=00:00:02.91 bitrate=2876.2kbits/s speed=0.0189x elapsed=0:02:34.60    \nframe=  178 fps=1.1 q=35.9 size=    1024KiB time=00:00:02.93 bitrate=2859.9kbits/s speed=0.0189x elapsed=0:02:35.14    \nframe=  179 fps=1.1 q=37.2 size=    1024KiB time=00:00:02.95 bitrate=2843.7kbits/s speed=0.0189x elapsed=0:02:35.69    \nframe=  181 fps=1.2 q=34.2 size=    1024KiB time=00:00:02.98 bitrate=2811.9kbits/s speed=0.0191x elapsed=0:02:36.23    \nframe=  181 fps=1.2 q=34.2 size=    1024KiB time=00:00:02.98 bitrate=2811.9kbits/s speed=0.019x elapsed=0:02:36.74    \nframe=  181 fps=1.2 q=34.2 size=    1024KiB time=00:00:02.98 bitrate=2811.9kbits/s speed=0.019x elapsed=0:02:37.25    \nframe=  182 fps=1.2 q=35.8 size=    1024KiB time=00:00:03.00 bitrate=2796.3kbits/s speed=0.019x elapsed=0:02:37.77    \nframe=  182 fps=1.1 q=35.8 size=    1024KiB time=00:00:03.00 bitrate=2796.3kbits/s speed=0.019x elapsed=0:02:38.28    \nframe=  182 fps=1.1 q=35.8 size=    1024KiB time=00:00:03.00 bitrate=2796.3kbits/s speed=0.0189x elapsed=0:02:38.80    \nframe=  183 fps=1.1 q=37.1 size=    1024KiB time=00:00:03.01 bitrate=2780.9kbits/s speed=0.0189x elapsed=0:02:39.32    \nframe=  184 fps=1.2 q=33.7 size=    1024KiB time=00:00:03.03 bitrate=2765.6kbits/s speed=0.019x elapsed=0:02:39.86    \nframe=  185 fps=1.2 q=35.7 size=    1024KiB time=00:00:03.05 bitrate=2750.5kbits/s speed=0.019x elapsed=0:02:40.40    \nframe=  186 fps=1.2 q=37.1 size=    1024KiB time=00:00:03.06 bitrate=2735.5kbits/s speed=0.0191x elapsed=0:02:40.96    \nframe=  186 fps=1.2 q=37.1 size=    1024KiB time=00:00:03.06 bitrate=2735.5kbits/s speed=0.019x elapsed=0:02:41.50    \nframe=  187 fps=1.2 q=37.0 size=    1024KiB time=00:00:03.08 bitrate=2720.7kbits/s speed=0.019x elapsed=0:02:42.02    \nframe=  187 fps=1.2 q=37.0 size=    1024KiB time=00:00:03.08 bitrate=2720.7kbits/s speed=0.019x elapsed=0:02:42.53    \nframe=  188 fps=1.2 q=33.7 size=    1024KiB time=00:00:03.10 bitrate=2706.1kbits/s speed=0.019x elapsed=0:02:43.05    \nframe=  188 fps=1.1 q=33.7 size=    1024KiB time=00:00:03.10 bitrate=2706.1kbits/s speed=0.019x elapsed=0:02:43.56    \nframe=  189 fps=1.2 q=35.6 size=    1024KiB time=00:00:03.11 bitrate=2691.6kbits/s speed=0.019x elapsed=0:02:44.10    \nframe=  189 fps=1.1 q=35.6 size=    1024KiB time=00:00:03.11 bitrate=2691.6kbits/s speed=0.0189x elapsed=0:02:44.61    \nframe=  191 fps=1.2 q=36.9 size=    1024KiB time=00:00:03.15 bitrate=2663.2kbits/s speed=0.0191x elapsed=0:02:45.13    \nframe=  192 fps=1.2 q=33.6 size=    1024KiB time=00:00:03.16 bitrate=2649.1kbits/s speed=0.0191x elapsed=0:02:45.64    \nframe=  193 fps=1.2 q=34.9 size=    1024KiB time=00:00:03.18 bitrate=2635.3kbits/s speed=0.0192x elapsed=0:02:46.17    \nframe=  193 fps=1.2 q=34.9 size=    1024KiB time=00:00:03.18 bitrate=2635.3kbits/s speed=0.0191x elapsed=0:02:46.69    \nframe=  193 fps=1.2 q=34.9 size=    1024KiB time=00:00:03.18 bitrate=2635.3kbits/s speed=0.019x elapsed=0:02:47.22    \nframe=  195 fps=1.2 q=36.9 size=    1024KiB time=00:00:03.21 bitrate=2608.0kbits/s speed=0.0192x elapsed=0:02:47.74    \nframe=  195 fps=1.2 q=36.9 size=    1024KiB time=00:00:03.21 bitrate=2608.0kbits/s speed=0.0191x elapsed=0:02:48.26    \nframe=  196 fps=1.2 q=36.9 size=    1024KiB time=00:00:03.23 bitrate=2594.5kbits/s speed=0.0192x elapsed=0:02:48.78    \nframe=  197 fps=1.2 q=33.6 size=    1024KiB time=00:00:03.25 bitrate=2581.2kbits/s speed=0.0192x elapsed=0:02:49.31    \nframe=  197 fps=1.2 q=33.6 size=    1024KiB time=00:00:03.25 bitrate=2581.2kbits/s speed=0.0191x elapsed=0:02:49.82    \nframe=  198 fps=1.2 q=35.2 size=    1024KiB time=00:00:03.26 bitrate=2568.0kbits/s speed=0.0192x elapsed=0:02:50.34    \nframe=  200 fps=1.2 q=36.8 size=    1024KiB time=00:00:03.30 bitrate=2542.1kbits/s speed=0.0193x elapsed=0:02:50.87    \nframe=  200 fps=1.2 q=36.8 size=    1024KiB time=00:00:03.30 bitrate=2542.1kbits/s speed=0.0193x elapsed=0:02:51.39    \nframe=  201 fps=1.2 q=33.3 size=    1024KiB time=00:00:03.31 bitrate=2529.3kbits/s speed=0.0193x elapsed=0:02:51.91    \nframe=  202 fps=1.2 q=35.1 size=    1024KiB time=00:00:03.33 bitrate=2516.7kbits/s speed=0.0193x elapsed=0:02:52.43    \nframe=  202 fps=1.2 q=35.1 size=    1024KiB time=00:00:03.33 bitrate=2516.7kbits/s speed=0.0193x elapsed=0:02:52.99    \nframe=  204 fps=1.2 q=36.7 size=    1024KiB time=00:00:03.36 bitrate=2491.8kbits/s speed=0.0194x elapsed=0:02:53.50    \nframe=  204 fps=1.2 q=36.7 size=    1024KiB time=00:00:03.36 bitrate=2491.8kbits/s speed=0.0193x elapsed=0:02:54.02    \nframe=  205 fps=1.2 q=32.8 size=    1024KiB time=00:00:03.38 bitrate=2479.5kbits/s speed=0.0194x elapsed=0:02:54.56    \nframe=  206 fps=1.2 q=35.1 size=    1024KiB time=00:00:03.40 bitrate=2467.3kbits/s speed=0.0194x elapsed=0:02:55.09    \nframe=  207 fps=1.2 q=36.5 size=    1024KiB time=00:00:03.41 bitrate=2455.3kbits/s speed=0.0195x elapsed=0:02:55.60    \nframe=  208 fps=1.2 q=36.6 size=    1024KiB time=00:00:03.43 bitrate=2443.4kbits/s speed=0.0195x elapsed=0:02:56.12    \nframe=  209 fps=1.2 q=32.8 size=    1024KiB time=00:00:03.45 bitrate=2431.6kbits/s speed=0.0195x elapsed=0:02:56.64    \nframe=  209 fps=1.2 q=32.8 size=    1024KiB time=00:00:03.45 bitrate=2431.6kbits/s speed=0.0195x elapsed=0:02:57.16    \nframe=  210 fps=1.2 q=35.1 size=    1280KiB time=00:00:03.46 bitrate=3024.8kbits/s speed=0.0195x elapsed=0:02:57.70    \nframe=  211 fps=1.2 q=36.7 size=    1280KiB time=00:00:03.48 bitrate=3010.4kbits/s speed=0.0195x elapsed=0:02:58.24    \nframe=  212 fps=1.2 q=36.5 size=    1280KiB time=00:00:03.50 bitrate=2996.0kbits/s speed=0.0196x elapsed=0:02:58.75    \nframe=  213 fps=1.2 q=32.7 size=    1280KiB time=00:00:03.51 bitrate=2981.8kbits/s speed=0.0196x elapsed=0:02:59.27    \nframe=  213 fps=1.2 q=32.7 size=    1280KiB time=00:00:03.51 bitrate=2981.8kbits/s speed=0.0196x elapsed=0:02:59.80    \nframe=  216 fps=1.2 q=36.6 size=    1280KiB time=00:00:03.56 bitrate=2940.0kbits/s speed=0.0198x elapsed=0:03:00.32    \nframe=  216 fps=1.2 q=36.6 size=    1280KiB time=00:00:03.56 bitrate=2940.0kbits/s speed=0.0197x elapsed=0:03:00.83    \nframe=  216 fps=1.2 q=36.6 size=    1280KiB time=00:00:03.56 bitrate=2940.0kbits/s speed=0.0197x elapsed=0:03:01.36    \nframe=  217 fps=1.2 q=31.9 size=    1280KiB time=00:00:03.58 bitrate=2926.4kbits/s speed=0.0197x elapsed=0:03:01.88    \nframe=  218 fps=1.2 q=35.0 size=    1280KiB time=00:00:03.60 bitrate=2912.8kbits/s speed=0.0197x elapsed=0:03:02.41    \nframe=  220 fps=1.2 q=36.5 size=    1280KiB time=00:00:03.63 bitrate=2886.1kbits/s speed=0.0199x elapsed=0:03:02.92    \nframe=  221 fps=1.2 q=31.0 size=    1280KiB time=00:00:03.65 bitrate=2872.9kbits/s speed=0.0199x elapsed=0:03:03.44    \nframe=  221 fps=1.2 q=31.0 size=    1280KiB time=00:00:03.65 bitrate=2872.9kbits/s speed=0.0198x elapsed=0:03:03.95    \nframe=  222 fps=1.2 q=34.4 size=    1280KiB time=00:00:03.66 bitrate=2859.8kbits/s speed=0.0199x elapsed=0:03:04.47    \nframe=  224 fps=1.2 q=36.4 size=    1280KiB time=00:00:03.70 bitrate=2834.1kbits/s speed=0.02x elapsed=0:03:05.01    \nframe=  225 fps=1.2 q=31.5 size=    1280KiB time=00:00:03.71 bitrate=2821.4kbits/s speed=0.02x elapsed=0:03:05.52    \nframe=  226 fps=1.2 q=34.6 size=    1280KiB time=00:00:03.73 bitrate=2808.8kbits/s speed=0.0201x elapsed=0:03:06.04    \nframe=  226 fps=1.2 q=34.6 size=    1280KiB time=00:00:03.73 bitrate=2808.8kbits/s speed=0.02x elapsed=0:03:06.59    \nframe=  228 fps=1.2 q=36.2 size=    1280KiB time=00:00:03.76 bitrate=2783.9kbits/s speed=0.0201x elapsed=0:03:07.15    \nframe=  228 fps=1.2 q=36.2 size=    1280KiB time=00:00:03.76 bitrate=2783.9kbits/s speed=0.0201x elapsed=0:03:07.67    \nframe=  229 fps=1.2 q=31.4 size=    1280KiB time=00:00:03.78 bitrate=2771.7kbits/s speed=0.0201x elapsed=0:03:08.21    \nframe=  230 fps=1.2 q=34.0 size=    1280KiB time=00:00:03.80 bitrate=2759.5kbits/s speed=0.0201x elapsed=0:03:08.74    \nframe=  230 fps=1.2 q=34.0 size=    1280KiB time=00:00:03.80 bitrate=2759.5kbits/s speed=0.0201x elapsed=0:03:09.26    \nframe=  232 fps=1.2 q=36.2 size=    1280KiB time=00:00:03.83 bitrate=2735.5kbits/s speed=0.0202x elapsed=0:03:09.77    \nframe=  232 fps=1.2 q=36.2 size=    1280KiB time=00:00:03.83 bitrate=2735.5kbits/s speed=0.0201x elapsed=0:03:10.28    \nframe=  233 fps=1.2 q=31.5 size=    1280KiB time=00:00:03.85 bitrate=2723.7kbits/s speed=0.0202x elapsed=0:03:10.81    \nframe=  234 fps=1.2 q=34.5 size=    1280KiB time=00:00:03.86 bitrate=2711.9kbits/s speed=0.0202x elapsed=0:03:11.32    \nframe=  234 fps=1.2 q=34.5 size=    1280KiB time=00:00:03.86 bitrate=2711.9kbits/s speed=0.0202x elapsed=0:03:11.83    \nframe=  234 fps=1.2 q=34.5 size=    1280KiB time=00:00:03.86 bitrate=2711.9kbits/s speed=0.0201x elapsed=0:03:12.34    \nframe=  237 fps=1.2 q=31.6 size=    1280KiB time=00:00:03.91 bitrate=2677.3kbits/s speed=0.0203x elapsed=0:03:12.86    \nframe=  237 fps=1.2 q=31.6 size=    1280KiB time=00:00:03.91 bitrate=2677.3kbits/s speed=0.0203x elapsed=0:03:13.39    \nframe=  237 fps=1.2 q=31.6 size=    1280KiB time=00:00:03.91 bitrate=2677.3kbits/s speed=0.0202x elapsed=0:03:13.89    \nframe=  238 fps=1.2 q=34.2 size=    1280KiB time=00:00:03.93 bitrate=2666.0kbits/s speed=0.0202x elapsed=0:03:14.41    \nframe=  239 fps=1.2 q=36.2 size=    1280KiB time=00:00:03.95 bitrate=2654.7kbits/s speed=0.0203x elapsed=0:03:14.93    \nframe=  240 fps=1.2 q=36.3 size=    1280KiB time=00:00:03.96 bitrate=2643.6kbits/s speed=0.0203x elapsed=0:03:15.45    \nframe=  241 fps=1.2 q=31.4 size=    1280KiB time=00:00:03.98 bitrate=2632.5kbits/s speed=0.0203x elapsed=0:03:15.97    \nframe=  241 fps=1.2 q=31.4 size=    1280KiB time=00:00:03.98 bitrate=2632.5kbits/s speed=0.0203x elapsed=0:03:16.49    \nframe=  243 fps=1.2 q=36.1 size=    1280KiB time=00:00:04.01 bitrate=2610.7kbits/s speed=0.0204x elapsed=0:03:17.01    \nframe=  244 fps=1.2 q=36.2 size=    1280KiB time=00:00:04.03 bitrate=2599.9kbits/s speed=0.0204x elapsed=0:03:17.52    \nframe=  245 fps=1.2 q=31.8 size=    1280KiB time=00:00:04.05 bitrate=2589.2kbits/s speed=0.0204x elapsed=0:03:18.06    \nframe=  245 fps=1.2 q=31.8 size=    1280KiB time=00:00:04.05 bitrate=2589.2kbits/s speed=0.0204x elapsed=0:03:18.60    \nframe=  246 fps=1.2 q=33.3 size=    1280KiB time=00:00:04.06 bitrate=2578.6kbits/s speed=0.0204x elapsed=0:03:19.11    \nframe=  248 fps=1.2 q=35.8 size=    1280KiB time=00:00:04.10 bitrate=2557.6kbits/s speed=0.0205x elapsed=0:03:19.63    \nframe=  248 fps=1.2 q=35.8 size=    1280KiB time=00:00:04.10 bitrate=2557.6kbits/s speed=0.0205x elapsed=0:03:20.15    \nframe=  249 fps=1.2 q=29.9 size=    1280KiB time=00:00:04.11 bitrate=2547.2kbits/s speed=0.0205x elapsed=0:03:20.65    \nframe=  250 fps=1.2 q=33.7 size=    1280KiB time=00:00:04.13 bitrate=2537.0kbits/s speed=0.0205x elapsed=0:03:21.18    \nframe=  251 fps=1.2 q=36.0 size=    1280KiB time=00:00:04.15 bitrate=2526.8kbits/s speed=0.0206x elapsed=0:03:21.69    \nframe=  252 fps=1.2 q=32.0 size=    1536KiB time=00:00:04.16 bitrate=3020.0kbits/s speed=0.0206x elapsed=0:03:22.21    \nframe=  253 fps=1.2 q=33.7 size=    1536KiB time=00:00:04.18 bitrate=3008.0kbits/s speed=0.0206x elapsed=0:03:22.74    \nframe=  254 fps=1.2 q=36.3 size=    1536KiB time=00:00:04.18 bitrate=3008.0kbits/s speed=0.0206x elapsed=0:03:23.25    \nframe=  255 fps=1.3 q=36.1 size=    1536KiB time=00:00:04.21 bitrate=2984.2kbits/s speed=0.0207x elapsed=0:03:23.80    \nframe=  256 fps=1.3 q=32.2 size=    1536KiB time=00:00:04.23 bitrate=2972.4kbits/s speed=0.0207x elapsed=0:03:24.32    \nframe=  257 fps=1.3 q=34.1 size=    1536KiB time=00:00:04.25 bitrate=2960.8kbits/s speed=0.0207x elapsed=0:03:24.84    \nframe=  259 fps=1.3 q=36.2 size=    1536KiB time=00:00:04.28 bitrate=2937.7kbits/s speed=0.0209x elapsed=0:03:25.35    \nframe=  259 fps=1.3 q=36.2 size=    1536KiB time=00:00:04.28 bitrate=2937.7kbits/s speed=0.0208x elapsed=0:03:25.90    \nframe=  260 fps=1.3 q=32.3 size=    1536KiB time=00:00:04.30 bitrate=2926.3kbits/s speed=0.0208x elapsed=0:03:26.42    \nframe=  261 fps=1.3 q=34.5 size=    1536KiB time=00:00:04.31 bitrate=2915.0kbits/s speed=0.0209x elapsed=0:03:26.94    \nframe=  262 fps=1.3 q=36.2 size=    1536KiB time=00:00:04.33 bitrate=2903.8kbits/s speed=0.0209x elapsed=0:03:27.47    \nframe=  263 fps=1.3 q=36.2 size=    1536KiB time=00:00:04.35 bitrate=2892.7kbits/s speed=0.0209x elapsed=0:03:27.99    \nframe=  264 fps=1.3 q=32.4 size=    1536KiB time=00:00:04.36 bitrate=2881.7kbits/s speed=0.0209x elapsed=0:03:28.51    \nframe=  265 fps=1.3 q=34.4 size=    1536KiB time=00:00:04.38 bitrate=2870.7kbits/s speed=0.021x elapsed=0:03:29.04    \nframe=  265 fps=1.3 q=34.4 size=    1536KiB time=00:00:04.38 bitrate=2870.7kbits/s speed=0.0209x elapsed=0:03:29.59    \nframe=  267 fps=1.3 q=36.0 size=    1536KiB time=00:00:04.41 bitrate=2849.0kbits/s speed=0.021x elapsed=0:03:30.11    \nframe=  267 fps=1.3 q=36.0 size=    1536KiB time=00:00:04.41 bitrate=2849.0kbits/s speed=0.021x elapsed=0:03:30.63    \nframe=  268 fps=1.3 q=32.4 size=    1536KiB time=00:00:04.43 bitrate=2838.3kbits/s speed=0.021x elapsed=0:03:31.17    \nframe=  269 fps=1.3 q=34.5 size=    1536KiB time=00:00:04.45 bitrate=2827.7kbits/s speed=0.021x elapsed=0:03:31.71    \nframe=  270 fps=1.3 q=36.2 size=    1536KiB time=00:00:04.46 bitrate=2817.1kbits/s speed=0.021x elapsed=0:03:32.23    \nframe=  271 fps=1.3 q=36.4 size=    1536KiB time=00:00:04.48 bitrate=2806.7kbits/s speed=0.0211x elapsed=0:03:32.75    \nframe=  272 fps=1.3 q=32.4 size=    1536KiB time=00:00:04.50 bitrate=2796.3kbits/s speed=0.0211x elapsed=0:03:33.27    \nframe=  273 fps=1.3 q=33.9 size=    1536KiB time=00:00:04.51 bitrate=2786.0kbits/s speed=0.0211x elapsed=0:03:33.79    \nframe=  275 fps=1.3 q=36.3 size=    1536KiB time=00:00:04.55 bitrate=2765.6kbits/s speed=0.0212x elapsed=0:03:34.30    \nframe=  276 fps=1.3 q=32.7 size=    1536KiB time=00:00:04.56 bitrate=2755.5kbits/s speed=0.0213x elapsed=0:03:34.82    \nframe=  277 fps=1.3 q=34.3 size=    1536KiB time=00:00:04.58 bitrate=2745.4kbits/s speed=0.0213x elapsed=0:03:35.33    \nframe=  278 fps=1.3 q=36.6 size=    1536KiB time=00:00:04.60 bitrate=2735.5kbits/s speed=0.0213x elapsed=0:03:35.85    \nframe=  280 fps=1.3 q=33.1 size=    1536KiB time=00:00:04.63 bitrate=2715.8kbits/s speed=0.0214x elapsed=0:03:36.37    \nframe=  280 fps=1.3 q=33.1 size=    1536KiB time=00:00:04.63 bitrate=2715.8kbits/s speed=0.0214x elapsed=0:03:36.88    \nframe=  281 fps=1.3 q=34.4 size=    1536KiB time=00:00:04.65 bitrate=2706.1kbits/s speed=0.0214x elapsed=0:03:37.40    \nframe=  283 fps=1.3 q=36.6 size=    1536KiB time=00:00:04.68 bitrate=2686.8kbits/s speed=0.0215x elapsed=0:03:37.93    \nframe=  284 fps=1.3 q=33.0 size=    1536KiB time=00:00:04.70 bitrate=2677.3kbits/s speed=0.0215x elapsed=0:03:38.44    \nframe=  286 fps=1.3 q=36.5 size=    1536KiB time=00:00:04.73 bitrate=2658.4kbits/s speed=0.0216x elapsed=0:03:38.96    \nframe=  287 fps=1.3 q=36.7 size=    1536KiB time=00:00:04.75 bitrate=2649.1kbits/s speed=0.0216x elapsed=0:03:39.48    \nframe=  288 fps=1.3 q=33.3 size=    1536KiB time=00:00:04.76 bitrate=2639.8kbits/s speed=0.0217x elapsed=0:03:39.98    \nframe=  289 fps=1.3 q=35.1 size=    1536KiB time=00:00:04.78 bitrate=2630.6kbits/s speed=0.0217x elapsed=0:03:40.51    \nframe=  291 fps=1.3 q=36.6 size=    1536KiB time=00:00:04.81 bitrate=2612.4kbits/s speed=0.0218x elapsed=0:03:41.07    \nframe=  292 fps=1.3 q=36.7 size=    1536KiB time=00:00:04.83 bitrate=2603.4kbits/s speed=0.0218x elapsed=0:03:41.58    \nframe=  292 fps=1.3 q=36.7 size=    1536KiB time=00:00:04.83 bitrate=2603.4kbits/s speed=0.0218x elapsed=0:03:42.10    \nframe=  293 fps=1.3 q=33.5 size=    1536KiB time=00:00:04.85 bitrate=2594.5kbits/s speed=0.0218x elapsed=0:03:42.62    \nframe=  295 fps=1.3 q=36.8 size=    1792KiB time=00:00:04.88 bitrate=3006.2kbits/s speed=0.0219x elapsed=0:03:43.14    \nframe=  296 fps=1.3 q=36.8 size=    1792KiB time=00:00:04.90 bitrate=2996.0kbits/s speed=0.0219x elapsed=0:03:43.66    \nframe=  297 fps=1.3 q=34.0 size=    1792KiB time=00:00:04.91 bitrate=2985.8kbits/s speed=0.0219x elapsed=0:03:44.17    \nframe=  298 fps=1.3 q=34.7 size=    1792KiB time=00:00:04.93 bitrate=2975.8kbits/s speed=0.022x elapsed=0:03:44.69    \n[mp4 @ 000002436c7d7a00] Starting second pass: moving the moov atom to the beginning of the file\n[out#0/mp4 @ 000002436c7d7900] video:1828KiB audio:0KiB subtitle:0KiB other streams:0KiB global headers:2KiB muxing overhead: 0.386967%\nframe=  300 fps=1.3 q=36.9 Lsize=    1835KiB time=00:00:04.96 bitrate=3026.1kbits/s speed=0.0221x elapsed=0:03:45.03    \nx265 [info]: frame I:      2, Avg QP:33.97  kb/s: 4286.40 \nx265 [info]: frame P:     74, Avg QP:33.22  kb/s: 4270.54 \nx265 [info]: frame B:    224, Avg QP:36.04  kb/s: 2558.66 \nx265 [info]: Weighted P-Frames: Y:2.7% UV:2.7%\n\nencoded 300 frames in 224.83s (1.33 fps), 2992.44 kb/s, Avg QP:35.33\n",
  "seconds": 225.26470637321472,
  "probe_out": {}
}